HIERARCHY
ROOT Hips
{
	OFFSET -0.001795 -0.223333 0.028219
	CHANNELS 6 Xposition Yposition Zposition Zrotation Yrotation Xrotation 
	JOINT LeftUpLeg
	{
		OFFSET 0.069520 -0.091406 -0.006815
		CHANNELS 3 Zrotation Yrotation Xrotation
		JOINT LeftLeg
		{
			OFFSET 0.034277 -0.375199 -0.004496
			CHANNELS 3 Zrotation Yrotation Xrotation
			JOINT LeftFoot
			{
				OFFSET -0.013596 -0.397961 -0.043693
				CHANNELS 3 Zrotation Yrotation Xrotation
				JOINT LeftToe
				{
					OFFSET 0.026358 -0.055791 0.119288
					CHANNELS 3 Zrotation Yrotation Xrotation
					End Site
					{
						OFFSET 0.000000 0.000000 0.000000
					}
				}
			}
		}
	}
	JOINT RightUpLeg
	{
		OFFSET -0.067670 -0.090522 -0.004320
		CHANNELS 3 Zrotation Yrotation Xrotation
		JOINT RightLeg
		{
			OFFSET -0.038290 -0.382569 -0.008850
			CHANNELS 3 Zrotation Yrotation Xrotation
			JOINT RightFoot
			{
				OFFSET 0.015774 -0.398415 -0.042312
				CHANNELS 3 Zrotation Yrotation Xrotation
				JOINT RightToe
				{
					OFFSET -0.025372 -0.048144 0.123348
					CHANNELS 3 Zrotation Yrotation Xrotation
					End Site
					{
						OFFSET 0.000000 0.000000 0.000000
					}
				}
			}
		}
	}
	JOINT Spine
	{
		OFFSET -0.002533 0.108963 -0.026696
		CHANNELS 3 Zrotation Yrotation Xrotation
		JOINT Spine1
		{
			OFFSET 0.005487 0.135180 0.001092
			CHANNELS 3 Zrotation Yrotation Xrotation
			JOINT Spine2
			{
				OFFSET 0.001457 0.052922 0.025425
				CHANNELS 3 Zrotation Yrotation Xrotation
				JOINT Neck
				{
					OFFSET -0.002778 0.213870 -0.042857
					CHANNELS 3 Zrotation Yrotation Xrotation
					JOINT Head
					{
						OFFSET 0.005152 0.064970 0.051349
						CHANNELS 3 Zrotation Yrotation Xrotation
						End Site
						{
							OFFSET 0.000000 0.000000 0.000000
						}
					}
				}
				JOINT LeftShoulder
				{
					OFFSET 0.078845 0.121749 -0.034090
					CHANNELS 3 Zrotation Yrotation Xrotation
					JOINT LeftArm
					{
						OFFSET 0.090977 0.030469 -0.008868
						CHANNELS 3 Zrotation Yrotation Xrotation
						JOINT LeftForeArm
						{
							OFFSET 0.259612 -0.012772 -0.027456
							CHANNELS 3 Zrotation Yrotation Xrotation
							JOINT LeftHand
							{
								OFFSET 0.249234 0.008986 -0.001171
								CHANNELS 3 Zrotation Yrotation Xrotation
								End Site
								{
									OFFSET 0.000000 0.000000 0.000000
								}
							}
						}
					}
				}
				JOINT RightShoulder
				{
					OFFSET -0.081759 0.118833 -0.038615
					CHANNELS 3 Zrotation Yrotation Xrotation
					JOINT RightArm
					{
						OFFSET -0.096012 0.032551 -0.009143
						CHANNELS 3 Zrotation Yrotation Xrotation
						JOINT RightForeArm
						{
							OFFSET -0.253742 -0.013329 -0.021401
							CHANNELS 3 Zrotation Yrotation Xrotation
							JOINT RightHand
							{
								OFFSET -0.255298 0.007772 -0.005559
								CHANNELS 3 Zrotation Yrotation Xrotation
								End Site
								{
									OFFSET 0.000000 0.000000 0.000000
								}
							}
						}
					}
				}
			}
		}
	}
}
MOTION
Frames: 7
Frame Time: 0.050000
0.047081 0.949129 -0.022446 1.684588 3.834774 14.010967 8.183239 -0.715163 -11.872185 -4.309746 0.411070 -0.402356 15.571279 28.431567 14.441873 0.000000 0.000000 0.000000 -7.726397 1.044513 -33.227731 1.816027 0.031819 14.483259 8.275249 11.442056 12.994967 0.000000 0.000000 0.000000 12.972116 -3.113662 14.065863 8.595076 -3.712462 -1.807724 2.000595 0.329147 5.260193 14.325612 -10.256564 -4.642776 0.000000 0.000000 0.000000 6.930427 -28.133766 8.888158 -19.974370 -20.552500 0.202497 -13.706552 -60.949401 10.406604 0.000000 0.000000 0.000000 23.499770 23.754200 13.036908 34.866999 39.787286 7.260737 25.600910 52.508423 15.053099 0.000000 0.000000 0.000000 
0.047484 0.948671 -0.022552 1.727611 3.741059 14.148257 8.239176 -0.720112 -12.159448 -4.261094 0.407982 -0.156677 15.622483 28.523395 14.323721 0.000000 0.000000 0.000000 -7.766425 1.047342 -33.448295 1.978052 -0.002725 14.670636 8.232886 11.622484 12.576308 0.000000 0.000000 0.000000 13.054274 -3.120626 13.997277 8.349290 -3.558012 -2.165730 2.037929 0.220397 5.630319 14.323516 -10.239161 -4.788106 0.000000 0.000000 0.000000 6.723955 -27.718252 8.797471 -20.602142 -19.987299 0.160864 -16.117201 -61.717870 12.060352 0.000000 0.000000 0.000000 23.469452 23.731880 12.977354 34.643628 39.638330 7.122572 26.795860 52.396675 15.618892 0.000000 0.000000 0.000000 
0.047883 0.948416 -0.022882 1.726259 3.752133 14.294043 8.333593 -0.724280 -12.399109 -4.252432 0.407301 -0.025437 15.484314 28.367823 14.150809 0.000000 0.000000 0.000000 -7.759672 1.051400 -33.694798 2.016195 -0.010713 14.856926 7.982390 11.284229 12.328159 0.000000 0.000000 0.000000 13.142768 -3.163171 14.104952 8.078348 -3.381242 -2.657266 2.241923 0.238786 6.165255 14.604361 -10.475221 -4.820654 0.000000 0.000000 0.000000 6.392112 -27.764557 8.869081 -20.718758 -19.711390 0.109827 -16.395544 -62.148373 12.332451 0.000000 0.000000 0.000000 23.483554 23.671578 12.963104 34.323584 39.620916 6.973409 27.124311 52.424648 15.820543 0.000000 0.000000 0.000000 
0.048344 0.948249 -0.023402 1.770537 3.638854 14.571215 8.402817 -0.735056 -12.874265 -4.238121 0.407760 0.418041 15.631923 28.561540 14.312630 0.000000 0.000000 0.000000 -7.938184 1.025509 -34.251450 2.365674 -0.090229 15.264239 7.807811 11.163546 11.963777 0.000000 0.000000 0.000000 13.121538 -3.147747 13.975050 8.106654 -3.433257 -2.280021 2.060736 0.664184 5.806981 14.933663 -10.753144 -4.590018 0.000000 0.000000 0.000000 6.478237 -27.620268 8.812883 -21.069483 -20.094307 0.194672 -17.172074 -62.299730 12.773135 0.000000 0.000000 0.000000 23.974769 23.599560 13.165223 33.804230 39.588809 6.801001 27.123749 52.306939 15.832727 0.000000 0.000000 0.000000 
0.048892 0.948228 -0.023964 1.835355 3.719053 14.654730 8.537539 -0.736511 -13.072966 -4.477738 0.430756 0.448562 15.626168 28.553558 14.377160 0.000000 0.000000 0.000000 -8.005216 0.999873 -34.502243 2.355860 -0.089680 15.441637 7.671312 10.860447 12.018268 0.000000 0.000000 0.000000 13.132524 -3.197161 14.208729 8.047612 -3.375926 -2.538234 2.133824 0.761093 5.980082 15.139376 -10.922700 -4.572756 0.000000 0.000000 0.000000 6.313285 -27.630335 8.844736 -21.150715 -20.874394 0.292837 -17.220730 -62.570554 12.860034 0.000000 0.000000 0.000000 24.035756 23.516930 13.181963 33.906662 40.014448 6.931956 26.952556 51.911918 15.635404 0.000000 0.000000 0.000000 
0.049524 0.948278 -0.024421 1.928614 3.667381 14.625348 8.472013 -0.738239 -13.077675 -4.374413 0.421360 0.521468 15.672057 28.559286 14.790342 0.000000 0.000000 0.000000 -8.139446 0.968686 -34.729485 2.576421 -0.141947 15.897087 7.581770 10.680033 12.004617 0.000000 0.000000 0.000000 13.260436 -3.267967 14.497737 7.858937 -3.273465 -2.710499 2.034472 0.936260 6.319477 15.353101 -11.117184 -4.552103 0.000000 0.000000 0.000000 6.720755 -27.590740 8.750222 -21.350158 -21.831858 0.418650 -16.708593 -62.779433 12.564579 0.000000 0.000000 0.000000 23.898093 23.392232 13.155616 34.435589 40.656723 7.241299 25.824281 51.720278 15.047794 0.000000 0.000000 0.000000 
0.050194 0.948353 -0.024626 2.052695 3.749722 14.483510 8.374427 -0.742349 -13.045513 -4.410131 0.424951 0.710751 15.516436 28.352614 14.766554 0.000000 0.000000 0.000000 -8.272493 0.918956 -34.836000 2.761293 -0.191879 16.323377 7.463001 10.376517 12.105381 0.000000 0.000000 0.000000 13.407215 -3.335809 14.744983 7.800241 -3.237097 -2.816668 1.856459 1.049882 6.525570 15.578619 -11.325452 -4.492865 0.000000 0.000000 0.000000 7.055485 -27.540112 8.666719 -21.588726 -22.747722 0.550207 -16.594840 -62.672726 12.433653 0.000000 0.000000 0.000000 23.892993 23.138964 13.068302 35.324717 41.231458 7.667363 25.327265 51.434059 14.743599 0.000000 0.000000 0.000000 
